<mxfile host="app.diagrams.net" modified="2021-07-18T07:20:07.386Z" agent="5.0 (Windows NT 10.0; Win64; x64) AppleWebKit/537.36 (KHTML, like Gecko) Chrome/91.0.4472.164 Safari/537.36" etag="vkg4MekDnZqOi04t3Lpl" version="14.9.0" type="github">
  <diagram id="C5RBs43oDa-KdzZeNtuy" name="Page-1">
    <mxGraphModel dx="1422" dy="762" grid="1" gridSize="10" guides="1" tooltips="1" connect="1" arrows="1" fold="1" page="1" pageScale="1" pageWidth="827" pageHeight="1169" math="0" shadow="0">
      <root>
        <mxCell id="WIyWlLk6GJQsqaUBKTNV-0" />
        <mxCell id="WIyWlLk6GJQsqaUBKTNV-1" parent="WIyWlLk6GJQsqaUBKTNV-0" />
        <mxCell id="gLTxhywvqRbAjFeNy4kK-13" style="edgeStyle=orthogonalEdgeStyle;rounded=0;orthogonalLoop=1;jettySize=auto;html=1;entryX=0.5;entryY=0;entryDx=0;entryDy=0;" edge="1" parent="WIyWlLk6GJQsqaUBKTNV-1" source="gLTxhywvqRbAjFeNy4kK-0" target="gLTxhywvqRbAjFeNy4kK-12">
          <mxGeometry relative="1" as="geometry" />
        </mxCell>
        <mxCell id="gLTxhywvqRbAjFeNy4kK-0" value="User" style="rounded=0;whiteSpace=wrap;html=1;" vertex="1" parent="WIyWlLk6GJQsqaUBKTNV-1">
          <mxGeometry x="200" y="200" width="120" height="60" as="geometry" />
        </mxCell>
        <mxCell id="gLTxhywvqRbAjFeNy4kK-15" style="edgeStyle=orthogonalEdgeStyle;rounded=0;orthogonalLoop=1;jettySize=auto;html=1;entryX=0.5;entryY=0;entryDx=0;entryDy=0;" edge="1" parent="WIyWlLk6GJQsqaUBKTNV-1" source="gLTxhywvqRbAjFeNy4kK-1" target="gLTxhywvqRbAjFeNy4kK-14">
          <mxGeometry relative="1" as="geometry" />
        </mxCell>
        <mxCell id="gLTxhywvqRbAjFeNy4kK-1" value="Amin" style="rounded=0;whiteSpace=wrap;html=1;" vertex="1" parent="WIyWlLk6GJQsqaUBKTNV-1">
          <mxGeometry x="474" y="200" width="120" height="60" as="geometry" />
        </mxCell>
        <mxCell id="gLTxhywvqRbAjFeNy4kK-8" style="edgeStyle=orthogonalEdgeStyle;rounded=0;orthogonalLoop=1;jettySize=auto;html=1;exitX=0.5;exitY=1;exitDx=0;exitDy=0;entryX=0.5;entryY=0;entryDx=0;entryDy=0;" edge="1" parent="WIyWlLk6GJQsqaUBKTNV-1" source="gLTxhywvqRbAjFeNy4kK-3" target="gLTxhywvqRbAjFeNy4kK-6">
          <mxGeometry relative="1" as="geometry" />
        </mxCell>
        <mxCell id="gLTxhywvqRbAjFeNy4kK-3" value="Login/Register" style="rounded=0;whiteSpace=wrap;html=1;" vertex="1" parent="WIyWlLk6GJQsqaUBKTNV-1">
          <mxGeometry x="354" y="30" width="120" height="60" as="geometry" />
        </mxCell>
        <mxCell id="gLTxhywvqRbAjFeNy4kK-9" style="edgeStyle=orthogonalEdgeStyle;rounded=0;orthogonalLoop=1;jettySize=auto;html=1;exitX=1;exitY=0.5;exitDx=0;exitDy=0;entryX=0.5;entryY=0;entryDx=0;entryDy=0;" edge="1" parent="WIyWlLk6GJQsqaUBKTNV-1" source="gLTxhywvqRbAjFeNy4kK-6" target="gLTxhywvqRbAjFeNy4kK-1">
          <mxGeometry relative="1" as="geometry" />
        </mxCell>
        <mxCell id="gLTxhywvqRbAjFeNy4kK-10" style="edgeStyle=orthogonalEdgeStyle;rounded=0;orthogonalLoop=1;jettySize=auto;html=1;exitX=0;exitY=0.5;exitDx=0;exitDy=0;entryX=0.583;entryY=-0.067;entryDx=0;entryDy=0;entryPerimeter=0;" edge="1" parent="WIyWlLk6GJQsqaUBKTNV-1" source="gLTxhywvqRbAjFeNy4kK-6" target="gLTxhywvqRbAjFeNy4kK-0">
          <mxGeometry relative="1" as="geometry" />
        </mxCell>
        <mxCell id="gLTxhywvqRbAjFeNy4kK-6" value="Auth Service" style="rounded=0;whiteSpace=wrap;html=1;" vertex="1" parent="WIyWlLk6GJQsqaUBKTNV-1">
          <mxGeometry x="354" y="120" width="120" height="60" as="geometry" />
        </mxCell>
        <mxCell id="gLTxhywvqRbAjFeNy4kK-11" value="User Dashboard" style="rounded=0;whiteSpace=wrap;html=1;" vertex="1" parent="WIyWlLk6GJQsqaUBKTNV-1">
          <mxGeometry x="200" y="410" width="120" height="60" as="geometry" />
        </mxCell>
        <mxCell id="gLTxhywvqRbAjFeNy4kK-19" style="edgeStyle=orthogonalEdgeStyle;rounded=0;orthogonalLoop=1;jettySize=auto;html=1;entryX=0.5;entryY=0;entryDx=0;entryDy=0;" edge="1" parent="WIyWlLk6GJQsqaUBKTNV-1" source="gLTxhywvqRbAjFeNy4kK-12" target="gLTxhywvqRbAjFeNy4kK-11">
          <mxGeometry relative="1" as="geometry" />
        </mxCell>
        <mxCell id="gLTxhywvqRbAjFeNy4kK-12" value="User Service" style="rounded=0;whiteSpace=wrap;html=1;" vertex="1" parent="WIyWlLk6GJQsqaUBKTNV-1">
          <mxGeometry x="200" y="290" width="120" height="60" as="geometry" />
        </mxCell>
        <mxCell id="gLTxhywvqRbAjFeNy4kK-18" value="" style="edgeStyle=orthogonalEdgeStyle;rounded=0;orthogonalLoop=1;jettySize=auto;html=1;" edge="1" parent="WIyWlLk6GJQsqaUBKTNV-1" source="gLTxhywvqRbAjFeNy4kK-14" target="gLTxhywvqRbAjFeNy4kK-17">
          <mxGeometry relative="1" as="geometry" />
        </mxCell>
        <mxCell id="gLTxhywvqRbAjFeNy4kK-14" value="Admin Service" style="rounded=0;whiteSpace=wrap;html=1;" vertex="1" parent="WIyWlLk6GJQsqaUBKTNV-1">
          <mxGeometry x="474" y="290" width="120" height="60" as="geometry" />
        </mxCell>
        <mxCell id="gLTxhywvqRbAjFeNy4kK-17" value="Admin Dashboard" style="rounded=0;whiteSpace=wrap;html=1;" vertex="1" parent="WIyWlLk6GJQsqaUBKTNV-1">
          <mxGeometry x="474" y="410" width="120" height="60" as="geometry" />
        </mxCell>
        <mxCell id="gLTxhywvqRbAjFeNy4kK-21" value="Profile Details" style="rounded=0;whiteSpace=wrap;html=1;" vertex="1" parent="WIyWlLk6GJQsqaUBKTNV-1">
          <mxGeometry x="40" y="500" width="90" height="60" as="geometry" />
        </mxCell>
        <mxCell id="gLTxhywvqRbAjFeNy4kK-22" value="Schedule" style="rounded=0;whiteSpace=wrap;html=1;" vertex="1" parent="WIyWlLk6GJQsqaUBKTNV-1">
          <mxGeometry x="150" y="500" width="90" height="60" as="geometry" />
        </mxCell>
        <mxCell id="gLTxhywvqRbAjFeNy4kK-25" value="Scores" style="rounded=0;whiteSpace=wrap;html=1;" vertex="1" parent="WIyWlLk6GJQsqaUBKTNV-1">
          <mxGeometry x="260" y="500" width="90" height="60" as="geometry" />
        </mxCell>
      </root>
    </mxGraphModel>
  </diagram>
</mxfile>
